<?xml version="1.0" encoding="UTF-8"?>
<svg xmlns="http://www.w3.org/2000/svg" viewBox="0 0 500 500" width="500" height="500">
  <!-- Robot Head -->
  <rect x="150" y="100" width="200" height="180" rx="20" fill="#5865F2" />
  
  <!-- Robot Eyes -->
  <circle cx="200" cy="160" r="25" fill="#1A1C21" />
  <circle cx="300" cy="160" r="25" fill="#1A1C21" />
  <circle cx="200" cy="160" r="10" fill="#FFFFFF" />
  <circle cx="300" cy="160" r="10" fill="#FFFFFF" />
  
  <!-- Robot Mouth -->
  <rect x="190" y="210" width="120" height="20" rx="10" fill="#1A1C21" />
  <rect x="210" y="210" width="80" height="20" rx="10" fill="#57F287" />
  
  <!-- Robot Antennas -->
  <rect x="180" y="85" width="10" height="30" fill="#5865F2" />
  <circle cx="185" cy="80" r="10" fill="#57F287" />
  <rect x="310" y="85" width="10" height="30" fill="#5865F2" />
  <circle cx="315" cy="80" r="10" fill="#ED4245" />
  
  <!-- Robot Body -->
  <rect x="175" y="280" width="150" height="100" rx="10" fill="#5865F2" />
  
  <!-- Robot Buttons -->
  <circle cx="220" cy="310" r="10" fill="#FFFFFF" />
  <circle cx="250" cy="310" r="10" fill="#FEE75C" />
  <circle cx="280" cy="310" r="10" fill="#57F287" />
  
  <!-- Robot Display -->
  <rect x="200" y="340" width="100" height="25" rx="5" fill="#1A1C21" />
  <rect x="205" y="345" width="90" height="15" rx="2" fill="#99AAB5" />
  
  <!-- Robot Arms -->
  <rect x="120" y="300" width="55" height="15" rx="5" fill="#5865F2" />
  <circle cx="120" cy="307.5" r="10" fill="#5865F2" />
  <rect x="325" y="300" width="55" height="15" rx="5" fill="#5865F2" />
  <circle cx="380" cy="307.5" r="10" fill="#5865F2" />
  
  <!-- Robot Legs -->
  <rect x="200" y="380" width="20" height="60" rx="5" fill="#5865F2" />
  <rect x="280" y="380" width="20" height="60" rx="5" fill="#5865F2" />
  <rect x="190" y="430" width="40" height="15" rx="5" fill="#5865F2" />
  <rect x="270" y="430" width="40" height="15" rx="5" fill="#5865F2" />
  
  <!-- Logo Text -->
  <text x="250" y="350" font-family="Arial" font-size="14" font-weight="bold" text-anchor="middle" fill="#FFFFFF">JoeA</text>
</svg>