<?xml version="1.0" encoding="UTF-8"?>
<svg xmlns="http://www.w3.org/2000/svg" viewBox="0 0 200 100" width="200" height="100">
  <!-- Discord Logo -->
  <path d="M125.1,50.5c-5.3,0-9.5,4.6-9.5,10.2c0,5.6,4.3,10.2,9.5,10.2c5.3,0,9.5-4.6,9.5-10.2C134.7,55.1,130.4,50.5,125.1,50.5z M79.4,50.5c-5.3,0-9.5,4.6-9.5,10.2c0,5.6,4.3,10.2,9.6,10.2c5.3,0,9.5-4.6,9.5-10.2C89,55.1,84.7,50.5,79.4,50.5z" fill="#5865F2" />
  <path d="M164.6,20.2c-13.5-10.7-26.5-10.4-26.5-10.4l-1.3,1.5c16.1,4.9,23.6,12,23.6,12c-10-5.4-19.7-8.1-28.8-9.1c-6.9-0.8-13.5-0.6-19.4,0.2c-0.6,0-1.1,0.1-1.7,0.2c-3.5,0.3-12,1.6-22.7,6.4c-3.7,1.7-5.9,2.9-5.9,2.9s7.9-7.5,24.9-12.4l-0.9-1.1c0,0-13-0.3-26.5,10.4c0,0-13.5,24.4-13.5,54.6c0,0,7.9,13.6,28.7,14.3c0,0,3.5-4.2,6.3-7.8c-11.9-3.6-16.5-11.1-16.5-11.1s0.9,0.7,2.6,1.6c0.1,0.1,0.2,0.2,0.4,0.3c0.3,0.2,0.6,0.3,0.9,0.5c2.5,1.4,5,2.5,7.3,3.4c4.1,1.6,9,3.2,14.7,4.3c7.5,1.4,16.3,1.9,25.9,0.1c4.7-0.9,9.5-2.3,14.5-4.3c3.5-1.3,7.5-3.2,11.7-6c0,0-4.8,7.7-17.2,11.2c2.8,3.6,6.2,7.6,6.2,7.6c20.8-0.7,28.7-14.3,29-13.8C178.1,44.6,164.6,20.2,164.6,20.2z" fill="#5865F2" />
</svg>